<svg xmlns="http://www.w3.org/2000/svg" viewBox="0 0 880 480" font-family="Inter,system-ui,sans-serif">
<rect width="880" height="480" fill="#fffdf8"/>
<line x1="310.1" y1="40" x2="310.1" y2="425" stroke="#8a8176" stroke-width="1.2" stroke-dasharray="4,3"/>
<text x="310.1" y="35" text-anchor="middle" font-size="9" fill="#8a8176">e2</text>
<line x1="612.5" y1="40" x2="612.5" y2="425" stroke="#8a8176" stroke-width="1.2" stroke-dasharray="4,3"/>
<text x="612.5" y="35" text-anchor="middle" font-size="9" fill="#8a8176">e3</text>
<line x1="70" y1="40.0" x2="850" y2="40.0" stroke="#e8e5df" stroke-width="0.6"/>
<text x="62" y="44.0" text-anchor="end" font-size="10" fill="#686d73">1.62</text>
<line x1="70" y1="117.0" x2="850" y2="117.0" stroke="#e8e5df" stroke-width="0.6"/>
<text x="62" y="121.0" text-anchor="end" font-size="10" fill="#686d73">1.28</text>
<line x1="70" y1="194.0" x2="850" y2="194.0" stroke="#e8e5df" stroke-width="0.6"/>
<text x="62" y="198.0" text-anchor="end" font-size="10" fill="#686d73">0.94</text>
<line x1="70" y1="271.0" x2="850" y2="271.0" stroke="#e8e5df" stroke-width="0.6"/>
<text x="62" y="275.0" text-anchor="end" font-size="10" fill="#686d73">0.60</text>
<line x1="70" y1="348.0" x2="850" y2="348.0" stroke="#e8e5df" stroke-width="0.6"/>
<text x="62" y="352.0" text-anchor="end" font-size="10" fill="#686d73">0.26</text>
<line x1="70" y1="425.0" x2="850" y2="425.0" stroke="#e8e5df" stroke-width="0.6"/>
<text x="62" y="429.0" text-anchor="end" font-size="10" fill="#686d73">-0.07</text>
<line x1="70.0" y1="40" x2="70.0" y2="425" stroke="#e8e5df" stroke-width="0.6"/>
<text x="70.0" y="443" text-anchor="middle" font-size="10" fill="#686d73">60</text>
<line x1="226.0" y1="40" x2="226.0" y2="425" stroke="#e8e5df" stroke-width="0.6"/>
<text x="226.0" y="443" text-anchor="middle" font-size="10" fill="#686d73">240</text>
<line x1="382.0" y1="40" x2="382.0" y2="425" stroke="#e8e5df" stroke-width="0.6"/>
<text x="382.0" y="443" text-anchor="middle" font-size="10" fill="#686d73">420</text>
<line x1="538.0" y1="40" x2="538.0" y2="425" stroke="#e8e5df" stroke-width="0.6"/>
<text x="538.0" y="443" text-anchor="middle" font-size="10" fill="#686d73">600</text>
<line x1="694.0" y1="40" x2="694.0" y2="425" stroke="#e8e5df" stroke-width="0.6"/>
<text x="694.0" y="443" text-anchor="middle" font-size="10" fill="#686d73">780</text>
<line x1="850.0" y1="40" x2="850.0" y2="425" stroke="#e8e5df" stroke-width="0.6"/>
<text x="850.0" y="443" text-anchor="middle" font-size="10" fill="#686d73">960</text>
<line x1="70" y1="40" x2="70" y2="425" stroke="#232426" stroke-width="1.2"/>
<line x1="70" y1="425" x2="850" y2="425" stroke="#232426" stroke-width="1.2"/>
<text x="460.0" y="466" text-anchor="middle" font-size="11" fill="#232426">step</text>
<text x="18" y="232.5" text-anchor="middle" font-size="11" fill="#232426" transform="rotate(-90,18,232.5)">loss contribution</text>
<text x="70" y="18" font-size="13" font-weight="600" fill="#232426">Val Loss Contribution by Bucket (frac × loss)</text>
<polyline points="70.0,108.2 113.3,162.3 156.7,143.1 200.0,192.6 243.3,168.5 286.7,131.2 330.0,189.8 373.3,171.3 416.7,102.7 460.0,156.7 503.3,190.2 546.7,165.5 590.0,152.6 633.3,112.9 676.7,87.7 720.0,60.6 763.3,67.2 806.7,76.0 850.0,64.1" fill="none" stroke="#c4493d" stroke-width="1.8" stroke-linejoin="round"/>
<rect x="690" y="45" width="14" height="3" fill="#c4493d"/>
<text x="708" y="50" font-size="9" fill="#232426">0</text>
<polyline points="70.0,336.8 113.3,342.6 156.7,338.2 200.0,343.4 243.3,348.1 286.7,340.9 330.0,333.0 373.3,340.6 416.7,329.1 460.0,340.5 503.3,337.1 546.7,338.6 590.0,341.8 633.3,325.8 676.7,314.8 720.0,314.0 763.3,302.7 806.7,315.8 850.0,305.6" fill="none" stroke="#353d79" stroke-width="1.8" stroke-linejoin="round"/>
<rect x="690" y="58" width="14" height="3" fill="#353d79"/>
<text x="708" y="63" font-size="9" fill="#232426">1</text>
<polyline points="70.0,363.3 113.3,368.5 156.7,368.8 200.0,369.3 243.3,366.2 286.7,376.2 330.0,369.5 373.3,368.3 416.7,367.1 460.0,369.4 503.3,373.3 546.7,369.3 590.0,374.1 633.3,366.6 676.7,350.8 720.0,357.2 763.3,341.6 806.7,343.3 850.0,352.4" fill="none" stroke="#b67524" stroke-width="1.8" stroke-linejoin="round"/>
<rect x="690" y="71" width="14" height="3" fill="#b67524"/>
<text x="708" y="76" font-size="9" fill="#232426">2</text>
<polyline points="70.0,367.4 113.3,380.5 156.7,381.8 200.0,381.0 243.3,381.8 286.7,376.0 330.0,379.8 373.3,380.9 416.7,380.3 460.0,379.9 503.3,378.0 546.7,383.1 590.0,374.7 633.3,371.5 676.7,376.7 720.0,373.3 763.3,365.0 806.7,375.0 850.0,364.7" fill="none" stroke="#236b70" stroke-width="1.8" stroke-linejoin="round"/>
<rect x="690" y="84" width="14" height="3" fill="#236b70"/>
<text x="708" y="89" font-size="9" fill="#232426">3</text>
<polyline points="70.0,379.1 113.3,389.0 156.7,382.3 200.0,387.8 243.3,386.2 286.7,388.3 330.0,387.7 373.3,389.7 416.7,386.5 460.0,384.9 503.3,387.0 546.7,382.5 590.0,381.8 633.3,384.3 676.7,378.7 720.0,379.0 763.3,379.6 806.7,374.3 850.0,378.8" fill="none" stroke="#7a5195" stroke-width="1.8" stroke-linejoin="round"/>
<rect x="690" y="97" width="14" height="3" fill="#7a5195"/>
<text x="708" y="102" font-size="9" fill="#232426">4</text>
<polyline points="70.0,382.7 113.3,389.2 156.7,388.8 200.0,388.0 243.3,389.9 286.7,390.6 330.0,392.8 373.3,393.2 416.7,393.5 460.0,388.5 503.3,392.4 546.7,388.2 590.0,390.5 633.3,389.7 676.7,380.2 720.0,387.4 763.3,384.1 806.7,379.8 850.0,379.8" fill="none" stroke="#ef5675" stroke-width="1.8" stroke-linejoin="round"/>
<rect x="690" y="110" width="14" height="3" fill="#ef5675"/>
<text x="708" y="115" font-size="9" fill="#232426">5</text>
<polyline points="70.0,323.4 113.3,343.5 156.7,343.8 200.0,350.2 243.3,350.8 286.7,360.6 330.0,352.6 373.3,338.3 416.7,348.5 460.0,350.7 503.3,355.1 546.7,348.9 590.0,349.7 633.3,335.5 676.7,320.7 720.0,316.6 763.3,317.8 806.7,333.0 850.0,322.7" fill="none" stroke="#3a7d44" stroke-width="1.8" stroke-linejoin="round"/>
<rect x="690" y="123" width="14" height="3" fill="#3a7d44"/>
<text x="708" y="128" font-size="9" fill="#232426">6-10</text>
<polyline points="70.0,324.0 113.3,339.0 156.7,346.8 200.0,346.4 243.3,343.2 286.7,353.3 330.0,350.2 373.3,340.6 416.7,338.5 460.0,346.8 503.3,346.7 546.7,346.8 590.0,352.2 633.3,342.5 676.7,314.9 720.0,330.9 763.3,322.0 806.7,328.2 850.0,327.6" fill="none" stroke="#8a8176" stroke-width="1.8" stroke-linejoin="round"/>
<rect x="690" y="136" width="14" height="3" fill="#8a8176"/>
<text x="708" y="141" font-size="9" fill="#232426">11-20</text>
<polyline points="70.0,298.0 113.3,317.0 156.7,322.1 200.0,332.2 243.3,327.6 286.7,336.3 330.0,320.1 373.3,326.4 416.7,315.5 460.0,325.2 503.3,324.9 546.7,327.1 590.0,313.4 633.3,314.2 676.7,285.1 720.0,299.4 763.3,285.5 806.7,298.3 850.0,285.2" fill="none" stroke="#e4b33c" stroke-width="1.8" stroke-linejoin="round"/>
<rect x="690" y="149" width="14" height="3" fill="#e4b33c"/>
<text x="708" y="154" font-size="9" fill="#232426">21-50</text>
<polyline points="70.0,326.2 113.3,349.8 156.7,351.9 200.0,360.0 243.3,347.0 286.7,349.1 330.0,345.9 373.3,355.6 416.7,341.9 460.0,345.9 503.3,353.9 546.7,350.8 590.0,350.9 633.3,348.6 676.7,324.3 720.0,331.8 763.3,327.9 806.7,345.0 850.0,323.3" fill="none" stroke="#4878cf" stroke-width="1.8" stroke-linejoin="round"/>
<rect x="690" y="162" width="14" height="3" fill="#4878cf"/>
<text x="708" y="167" font-size="9" fill="#232426">51-100</text>
<polyline points="70.0,344.5 113.3,352.9 156.7,360.8 200.0,363.8 243.3,366.5 286.7,369.5 330.0,365.8 373.3,362.3 416.7,359.2 460.0,361.7 503.3,360.5 546.7,363.5 590.0,364.2 633.3,361.0 676.7,350.0 720.0,360.2 763.3,352.0 806.7,336.5 850.0,338.9" fill="none" stroke="#6c5b7b" stroke-width="1.8" stroke-linejoin="round"/>
<rect x="690" y="175" width="14" height="3" fill="#6c5b7b"/>
<text x="708" y="180" font-size="9" fill="#232426">101-200</text>
<polyline points="70.0,350.8 113.3,358.1 156.7,358.5 200.0,376.3 243.3,362.9 286.7,361.2 330.0,364.0 373.3,367.1 416.7,358.1 460.0,365.7 503.3,358.9 546.7,364.2 590.0,359.6 633.3,360.8 676.7,353.1 720.0,358.1 763.3,353.4 806.7,352.5 850.0,351.1" fill="none" stroke="#d65f5f" stroke-width="1.8" stroke-linejoin="round"/>
<rect x="690" y="188" width="14" height="3" fill="#d65f5f"/>
<text x="708" y="193" font-size="9" fill="#232426">201-500</text>
<polyline points="70.0,381.0 113.3,380.1 156.7,387.4 200.0,389.2 243.3,389.0 286.7,380.8 330.0,387.9 373.3,384.1 416.7,383.4 460.0,386.1 503.3,375.2 546.7,389.3 590.0,379.1 633.3,383.3 676.7,381.6 720.0,378.3 763.3,378.6 806.7,383.2 850.0,382.1" fill="none" stroke="#2a9d8f" stroke-width="1.8" stroke-linejoin="round"/>
<rect x="690" y="201" width="14" height="3" fill="#2a9d8f"/>
<text x="708" y="206" font-size="9" fill="#232426">501-1k</text>
<polyline points="70.0,382.7 113.3,382.2 156.7,394.6 200.0,389.3 243.3,391.4 286.7,387.7 330.0,391.5 373.3,385.5 416.7,388.6 460.0,384.9 503.3,380.6 546.7,385.4 590.0,390.4 633.3,382.8 676.7,383.4 720.0,371.9 763.3,374.9 806.7,387.1 850.0,378.7" fill="none" stroke="#bc6c25" stroke-width="1.8" stroke-linejoin="round"/>
<rect x="690" y="214" width="14" height="3" fill="#bc6c25"/>
<text x="708" y="219" font-size="9" fill="#232426">1k-5k</text>
<polyline points="70.0,399.1 113.3,401.8 156.7,403.0 200.0,399.5 243.3,402.1 286.7,401.2 330.0,402.6 373.3,401.2 416.7,403.3 460.0,403.1 503.3,397.6 546.7,402.6 590.0,400.3 633.3,400.8 676.7,403.5 720.0,399.4 763.3,399.5 806.7,396.8 850.0,404.4" fill="none" stroke="#606c38" stroke-width="1.8" stroke-linejoin="round"/>
<rect x="690" y="227" width="14" height="3" fill="#606c38"/>
<text x="708" y="232" font-size="9" fill="#232426">5k+</text>
</svg>