<svg xmlns="http://www.w3.org/2000/svg" viewBox="0 0 880 480" font-family="Inter,system-ui,sans-serif">
<rect width="880" height="480" fill="#fffdf8"/>
<line x1="310.1" y1="30" x2="310.1" y2="425" stroke="#8a8176" stroke-width="1.2" stroke-dasharray="4,3"/>
<line x1="612.5" y1="30" x2="612.5" y2="425" stroke="#8a8176" stroke-width="1.2" stroke-dasharray="4,3"/>
<line x1="70" y1="30.0" x2="850" y2="30.0" stroke="#e8e5df" stroke-width="0.6"/>
<text x="62" y="34.0" text-anchor="end" font-size="10" fill="#686d73">5.26</text>
<line x1="70" y1="109.0" x2="850" y2="109.0" stroke="#e8e5df" stroke-width="0.6"/>
<text x="62" y="113.0" text-anchor="end" font-size="10" fill="#686d73">4.85</text>
<line x1="70" y1="188.0" x2="850" y2="188.0" stroke="#e8e5df" stroke-width="0.6"/>
<text x="62" y="192.0" text-anchor="end" font-size="10" fill="#686d73">4.44</text>
<line x1="70" y1="267.0" x2="850" y2="267.0" stroke="#e8e5df" stroke-width="0.6"/>
<text x="62" y="271.0" text-anchor="end" font-size="10" fill="#686d73">4.03</text>
<line x1="70" y1="346.0" x2="850" y2="346.0" stroke="#e8e5df" stroke-width="0.6"/>
<text x="62" y="350.0" text-anchor="end" font-size="10" fill="#686d73">3.62</text>
<line x1="70" y1="425.0" x2="850" y2="425.0" stroke="#e8e5df" stroke-width="0.6"/>
<text x="62" y="429.0" text-anchor="end" font-size="10" fill="#686d73">3.21</text>
<line x1="70.0" y1="30" x2="70.0" y2="425" stroke="#e8e5df" stroke-width="0.6"/>
<text x="70.0" y="443" text-anchor="middle" font-size="10" fill="#686d73">60</text>
<line x1="226.0" y1="30" x2="226.0" y2="425" stroke="#e8e5df" stroke-width="0.6"/>
<text x="226.0" y="443" text-anchor="middle" font-size="10" fill="#686d73">240</text>
<line x1="382.0" y1="30" x2="382.0" y2="425" stroke="#e8e5df" stroke-width="0.6"/>
<text x="382.0" y="443" text-anchor="middle" font-size="10" fill="#686d73">420</text>
<line x1="538.0" y1="30" x2="538.0" y2="425" stroke="#e8e5df" stroke-width="0.6"/>
<text x="538.0" y="443" text-anchor="middle" font-size="10" fill="#686d73">600</text>
<line x1="694.0" y1="30" x2="694.0" y2="425" stroke="#e8e5df" stroke-width="0.6"/>
<text x="694.0" y="443" text-anchor="middle" font-size="10" fill="#686d73">780</text>
<line x1="850.0" y1="30" x2="850.0" y2="425" stroke="#e8e5df" stroke-width="0.6"/>
<text x="850.0" y="443" text-anchor="middle" font-size="10" fill="#686d73">960</text>
<line x1="70" y1="30" x2="70" y2="425" stroke="#232426" stroke-width="1.2"/>
<line x1="70" y1="425" x2="850" y2="425" stroke="#232426" stroke-width="1.2"/>
<text x="460.0" y="466" text-anchor="middle" font-size="11" fill="#232426">step</text>
<text x="18" y="227.5" text-anchor="middle" font-size="11" fill="#232426" transform="rotate(-90,18,227.5)">loss</text>
<text x="70" y="20" font-size="13" font-weight="600" fill="#232426">Val Loss: Novel Contexts vs Overall Mean</text>
<polyline points="70.0,174.0 113.3,285.9 156.7,314.6 200.0,402.4 243.3,386.8 286.7,334.3 330.0,375.1 373.3,326.4 416.7,230.3 460.0,301.0 503.3,317.3 546.7,284.9 590.0,295.5 633.3,228.3 676.7,133.7 720.0,108.4 763.3,88.9 806.7,134.8 850.0,87.1" fill="none" stroke="#c4493d" stroke-width="1.5" stroke-linejoin="round"/>
<rect x="700" y="33" width="10" height="3" fill="#c4493d"/>
<text x="714" y="39" font-size="10" fill="#232426">novel ctx loss</text>
<polyline points="70.0,149.0 113.3,308.7 156.7,321.7 200.0,403.8 243.3,363.5 286.7,347.8 330.0,373.4 373.3,349.7 416.7,257.9 460.0,337.0 503.3,355.0 546.7,350.5 590.0,324.8 633.3,244.5 676.7,97.0 720.0,107.3 763.3,51.2 806.7,113.3 850.0,57.8" fill="none" stroke="#353d79" stroke-width="1.5" stroke-linejoin="round"/>
<rect x="700" y="47" width="10" height="3" fill="#353d79"/>
<text x="714" y="53" font-size="10" fill="#232426">mean val loss</text>
</svg>