<?xml version="1.0" encoding="utf-8" standalone="no"?>
<!DOCTYPE svg PUBLIC "-//W3C//DTD SVG 1.1//EN"
  "http://www.w3.org/Graphics/SVG/1.1/DTD/svg11.dtd">
<svg xmlns:xlink="http://www.w3.org/1999/xlink" width="511.28pt" height="205.235pt" viewBox="0 0 511.28 205.235" xmlns="http://www.w3.org/2000/svg" version="1.1">
 <metadata>
  <rdf:RDF xmlns:dc="http://purl.org/dc/elements/1.1/" xmlns:cc="http://creativecommons.org/ns#" xmlns:rdf="http://www.w3.org/1999/02/22-rdf-syntax-ns#">
   <cc:Work>
    <dc:type rdf:resource="http://purl.org/dc/dcmitype/StillImage"/>
    <dc:date>2026-10-07T00:50:41.405336</dc:date>
    <dc:format>image/svg+xml</dc:format>
    <dc:creator>
     <cc:Agent>
      <dc:title>Matplotlib v3.10.9, https://matplotlib.org/</dc:title>
     </cc:Agent>
    </dc:creator>
   </cc:Work>
  </rdf:RDF>
 </metadata>
 <defs>
  <style type="text/css">*{stroke-linejoin: round; stroke-linecap: butt}</style>
 </defs>
 <g id="figure_1">
  <g id="patch_1">
   <path d="M 0 205.235
L 511.28 205.235
L 511.28 0
L 0 0
z
" style="fill: #ffffff"/>
  </g>
  <g id="axes_1">
   <g id="patch_2">
    <path d="M 38.44 167.56
L 504.08 167.56
L 504.08 7.2
L 38.44 7.2
z
" style="fill: #ffffff"/>
   </g>
   <g id="matplotlib.axis_1">
    <g id="xtick_1">
     <g id="line2d_1">
      <path d="M 59.605455 167.56
L 59.605455 7.2
" clip-path="url(#pa45fcaae2a)" style="fill: none; stroke: #e8e6dc; stroke-width: 0.8; stroke-linecap: square"/>
     </g>
     <g id="line2d_2">
      <defs>
       <path id="m5acb218427" d="M 0 0
L 0 3.5
" style="stroke: #5e5d59; stroke-width: 0.8"/>
      </defs>
      <g>
       <use xlink:href="#m5acb218427" x="59.605455" y="167.56" style="fill: #5e5d59; stroke: #5e5d59; stroke-width: 0.8"/>
      </g>
     </g>
     <g id="text_1">
      <text style="font-size: 9px; font-family: 'Noto Sans CJK SC', 'Poppins', 'Arial', 'Hiragino Sans GB', 'Arial Unicode MS', 'DejaVu Sans', sans-serif; text-anchor: middle; fill: #5e5d59" x="59.605455" y="181.723437" transform="rotate(-0 59.605455 181.723437)">30</text>
     </g>
    </g>
    <g id="xtick_2">
     <g id="line2d_3">
      <path d="M 271.26 167.56
L 271.26 7.2
" clip-path="url(#pa45fcaae2a)" style="fill: none; stroke: #e8e6dc; stroke-width: 0.8; stroke-linecap: square"/>
     </g>
     <g id="line2d_4">
      <g>
       <use xlink:href="#m5acb218427" x="271.26" y="167.56" style="fill: #5e5d59; stroke: #5e5d59; stroke-width: 0.8"/>
      </g>
     </g>
     <g id="text_2">
      <text style="font-size: 9px; font-family: 'Noto Sans CJK SC', 'Poppins', 'Arial', 'Hiragino Sans GB', 'Arial Unicode MS', 'DejaVu Sans', sans-serif; text-anchor: middle; fill: #5e5d59" x="271.26" y="181.723437" transform="rotate(-0 271.26 181.723437)">40</text>
     </g>
    </g>
    <g id="xtick_3">
     <g id="line2d_5">
      <path d="M 482.914545 167.56
L 482.914545 7.2
" clip-path="url(#pa45fcaae2a)" style="fill: none; stroke: #e8e6dc; stroke-width: 0.8; stroke-linecap: square"/>
     </g>
     <g id="line2d_6">
      <g>
       <use xlink:href="#m5acb218427" x="482.914545" y="167.56" style="fill: #5e5d59; stroke: #5e5d59; stroke-width: 0.8"/>
      </g>
     </g>
     <g id="text_3">
      <text style="font-size: 9px; font-family: 'Noto Sans CJK SC', 'Poppins', 'Arial', 'Hiragino Sans GB', 'Arial Unicode MS', 'DejaVu Sans', sans-serif; text-anchor: middle; fill: #5e5d59" x="482.914545" y="181.723437" transform="rotate(-0 482.914545 181.723437)">50</text>
     </g>
    </g>
    <g id="text_4">
     <text style="font-size: 10px; font-family: 'Noto Sans CJK SC', 'Poppins', 'Arial', 'Hiragino Sans GB', 'Arial Unicode MS', 'DejaVu Sans', sans-serif; text-anchor: middle; fill: #141413" x="271.26" y="195.744375" transform="rotate(-0 271.26 195.744375)">训练步</text>
    </g>
   </g>
   <g id="matplotlib.axis_2">
    <g id="ytick_1">
     <g id="line2d_7">
      <path d="M 38.44 167.56
L 504.08 167.56
" clip-path="url(#pa45fcaae2a)" style="fill: none; stroke: #e8e6dc; stroke-width: 0.8; stroke-linecap: square"/>
     </g>
     <g id="line2d_8">
      <defs>
       <path id="m1fafdb381c" d="M 0 0
L -3.5 0
" style="stroke: #5e5d59; stroke-width: 0.8"/>
      </defs>
      <g>
       <use xlink:href="#m1fafdb381c" x="38.44" y="167.56" style="fill: #5e5d59; stroke: #5e5d59; stroke-width: 0.8"/>
      </g>
     </g>
     <g id="text_5">
      <text style="font-size: 9px; font-family: 'Noto Sans CJK SC', 'Poppins', 'Arial', 'Hiragino Sans GB', 'Arial Unicode MS', 'DejaVu Sans', sans-serif; text-anchor: end; fill: #5e5d59" x="31.44" y="171.141719" transform="rotate(-0 31.44 171.141719)">0</text>
     </g>
    </g>
    <g id="ytick_2">
     <g id="line2d_9">
      <path d="M 38.44 131.924444
L 504.08 131.924444
" clip-path="url(#pa45fcaae2a)" style="fill: none; stroke: #e8e6dc; stroke-width: 0.8; stroke-linecap: square"/>
     </g>
     <g id="line2d_10">
      <g>
       <use xlink:href="#m1fafdb381c" x="38.44" y="131.924444" style="fill: #5e5d59; stroke: #5e5d59; stroke-width: 0.8"/>
      </g>
     </g>
     <g id="text_6">
      <text style="font-size: 9px; font-family: 'Noto Sans CJK SC', 'Poppins', 'Arial', 'Hiragino Sans GB', 'Arial Unicode MS', 'DejaVu Sans', sans-serif; text-anchor: end; fill: #5e5d59" x="31.44" y="135.506163" transform="rotate(-0 31.44 135.506163)">10</text>
     </g>
    </g>
    <g id="ytick_3">
     <g id="line2d_11">
      <path d="M 38.44 96.288889
L 504.08 96.288889
" clip-path="url(#pa45fcaae2a)" style="fill: none; stroke: #e8e6dc; stroke-width: 0.8; stroke-linecap: square"/>
     </g>
     <g id="line2d_12">
      <g>
       <use xlink:href="#m1fafdb381c" x="38.44" y="96.288889" style="fill: #5e5d59; stroke: #5e5d59; stroke-width: 0.8"/>
      </g>
     </g>
     <g id="text_7">
      <text style="font-size: 9px; font-family: 'Noto Sans CJK SC', 'Poppins', 'Arial', 'Hiragino Sans GB', 'Arial Unicode MS', 'DejaVu Sans', sans-serif; text-anchor: end; fill: #5e5d59" x="31.44" y="99.870608" transform="rotate(-0 31.44 99.870608)">20</text>
     </g>
    </g>
    <g id="ytick_4">
     <g id="line2d_13">
      <path d="M 38.44 60.653333
L 504.08 60.653333
" clip-path="url(#pa45fcaae2a)" style="fill: none; stroke: #e8e6dc; stroke-width: 0.8; stroke-linecap: square"/>
     </g>
     <g id="line2d_14">
      <g>
       <use xlink:href="#m1fafdb381c" x="38.44" y="60.653333" style="fill: #5e5d59; stroke: #5e5d59; stroke-width: 0.8"/>
      </g>
     </g>
     <g id="text_8">
      <text style="font-size: 9px; font-family: 'Noto Sans CJK SC', 'Poppins', 'Arial', 'Hiragino Sans GB', 'Arial Unicode MS', 'DejaVu Sans', sans-serif; text-anchor: end; fill: #5e5d59" x="31.44" y="64.235052" transform="rotate(-0 31.44 64.235052)">30</text>
     </g>
    </g>
    <g id="ytick_5">
     <g id="line2d_15">
      <path d="M 38.44 25.017778
L 504.08 25.017778
" clip-path="url(#pa45fcaae2a)" style="fill: none; stroke: #e8e6dc; stroke-width: 0.8; stroke-linecap: square"/>
     </g>
     <g id="line2d_16">
      <g>
       <use xlink:href="#m1fafdb381c" x="38.44" y="25.017778" style="fill: #5e5d59; stroke: #5e5d59; stroke-width: 0.8"/>
      </g>
     </g>
     <g id="text_9">
      <text style="font-size: 9px; font-family: 'Noto Sans CJK SC', 'Poppins', 'Arial', 'Hiragino Sans GB', 'Arial Unicode MS', 'DejaVu Sans', sans-serif; text-anchor: end; fill: #5e5d59" x="31.44" y="28.599497" transform="rotate(-0 31.44 28.599497)">40</text>
     </g>
    </g>
    <g id="text_10">
     <text style="font-size: 10px; font-family: 'Noto Sans CJK SC', 'Poppins', 'Arial', 'Hiragino Sans GB', 'Arial Unicode MS', 'DejaVu Sans', sans-serif; text-anchor: middle; fill: #141413" x="15.159375" y="87.38" transform="rotate(-90 15.159375 87.38)">exact（%）</text>
    </g>
   </g>
   <g id="line2d_17">
    <path d="M 59.605455 108.577011
L 271.26 108.577011
L 482.914545 107.348199
" clip-path="url(#pa45fcaae2a)" style="fill: none; stroke: #d97757; stroke-width: 1.8; stroke-linecap: square"/>
    <defs>
     <path id="m28c9156a76" d="M 0 2
C 0.530406 2 1.03916 1.789267 1.414214 1.414214
C 1.789267 1.03916 2 0.530406 2 0
C 2 -0.530406 1.789267 -1.03916 1.414214 -1.414214
C 1.03916 -1.789267 0.530406 -2 0 -2
C -0.530406 -2 -1.03916 -1.789267 -1.414214 -1.414214
C -1.789267 -1.03916 -2 -0.530406 -2 0
C -2 0.530406 -1.789267 1.03916 -1.414214 1.414214
C -1.03916 1.789267 -0.530406 2 0 2
z
" style="stroke: #d97757"/>
    </defs>
    <g clip-path="url(#pa45fcaae2a)">
     <use xlink:href="#m28c9156a76" x="59.605455" y="108.577011" style="fill: #d97757; stroke: #d97757"/>
     <use xlink:href="#m28c9156a76" x="271.26" y="108.577011" style="fill: #d97757; stroke: #d97757"/>
     <use xlink:href="#m28c9156a76" x="482.914545" y="107.348199" style="fill: #d97757; stroke: #d97757"/>
    </g>
   </g>
   <g id="line2d_18">
    <path d="M 59.605455 59.282735
L 271.26 59.282735
L 482.914545 59.282735
" clip-path="url(#pa45fcaae2a)" style="fill: none; stroke: #6a9bcc; stroke-width: 1.8; stroke-linecap: square"/>
    <defs>
     <path id="m0259bfc075" d="M 0 2
C 0.530406 2 1.03916 1.789267 1.414214 1.414214
C 1.789267 1.03916 2 0.530406 2 0
C 2 -0.530406 1.789267 -1.03916 1.414214 -1.414214
C 1.03916 -1.789267 0.530406 -2 0 -2
C -0.530406 -2 -1.03916 -1.789267 -1.414214 -1.414214
C -1.789267 -1.03916 -2 -0.530406 -2 0
C -2 0.530406 -1.789267 1.03916 -1.414214 1.414214
C -1.03916 1.789267 -0.530406 2 0 2
z
" style="stroke: #6a9bcc"/>
    </defs>
    <g clip-path="url(#pa45fcaae2a)">
     <use xlink:href="#m0259bfc075" x="59.605455" y="59.282735" style="fill: #6a9bcc; stroke: #6a9bcc"/>
     <use xlink:href="#m0259bfc075" x="271.26" y="59.282735" style="fill: #6a9bcc; stroke: #6a9bcc"/>
     <use xlink:href="#m0259bfc075" x="482.914545" y="59.282735" style="fill: #6a9bcc; stroke: #6a9bcc"/>
    </g>
   </g>
   <g id="line2d_19">
    <path d="M 59.605455 148.628611
L 271.26 148.628611
L 482.914545 146.401389
" clip-path="url(#pa45fcaae2a)" style="fill: none; stroke: #788c5d; stroke-width: 1.8; stroke-linecap: square"/>
    <defs>
     <path id="mcc53ff5ffc" d="M 0 2
C 0.530406 2 1.03916 1.789267 1.414214 1.414214
C 1.789267 1.03916 2 0.530406 2 0
C 2 -0.530406 1.789267 -1.03916 1.414214 -1.414214
C 1.03916 -1.789267 0.530406 -2 0 -2
C -0.530406 -2 -1.03916 -1.789267 -1.414214 -1.414214
C -1.789267 -1.03916 -2 -0.530406 -2 0
C -2 0.530406 -1.789267 1.03916 -1.414214 1.414214
C -1.03916 1.789267 -0.530406 2 0 2
z
" style="stroke: #788c5d"/>
    </defs>
    <g clip-path="url(#pa45fcaae2a)">
     <use xlink:href="#mcc53ff5ffc" x="59.605455" y="148.628611" style="fill: #788c5d; stroke: #788c5d"/>
     <use xlink:href="#mcc53ff5ffc" x="271.26" y="148.628611" style="fill: #788c5d; stroke: #788c5d"/>
     <use xlink:href="#mcc53ff5ffc" x="482.914545" y="146.401389" style="fill: #788c5d; stroke: #788c5d"/>
    </g>
   </g>
   <g id="line2d_20">
    <path d="M 38.44 30.505653
L 504.08 30.505653
" clip-path="url(#pa45fcaae2a)" style="fill: none; stroke-dasharray: 6.66,2.88; stroke-dashoffset: 0; stroke: #b0aea5; stroke-width: 1.8"/>
   </g>
   <g id="patch_3">
    <path d="M 38.44 167.56
L 38.44 7.2
" style="fill: none; stroke: #b0aea5; stroke-width: 0.8; stroke-linejoin: miter; stroke-linecap: square"/>
   </g>
   <g id="patch_4">
    <path d="M 38.44 167.56
L 504.08 167.56
" style="fill: none; stroke: #b0aea5; stroke-width: 0.8; stroke-linejoin: miter; stroke-linecap: square"/>
   </g>
   <g id="legend_1">
    <g id="line2d_21">
     <path d="M 363.63125 80.7475
L 371.63125 80.7475
L 379.63125 80.7475
" style="fill: none; stroke: #d97757; stroke-width: 1.8; stroke-linecap: square"/>
     <g>
      <use xlink:href="#m28c9156a76" x="371.63125" y="80.7475" style="fill: #d97757; stroke: #d97757"/>
     </g>
    </g>
    <g id="text_11">
     <text style="font-size: 8px; font-family: 'Noto Sans CJK SC', 'Poppins', 'Arial', 'Hiragino Sans GB', 'Arial Unicode MS', 'DejaVu Sans', sans-serif; text-anchor: start; fill: #141413" x="386.03125" y="83.5475" transform="rotate(-0 386.03125 83.5475)">全任务</text>
    </g>
    <g id="line2d_22">
     <path d="M 363.63125 92.9475
L 371.63125 92.9475
L 379.63125 92.9475
" style="fill: none; stroke: #6a9bcc; stroke-width: 1.8; stroke-linecap: square"/>
     <g>
      <use xlink:href="#m0259bfc075" x="371.63125" y="92.9475" style="fill: #6a9bcc; stroke: #6a9bcc"/>
     </g>
    </g>
    <g id="text_12">
     <text style="font-size: 8px; font-family: 'Noto Sans CJK SC', 'Poppins', 'Arial', 'Hiragino Sans GB', 'Arial Unicode MS', 'DejaVu Sans', sans-serif; text-anchor: start; fill: #141413" x="386.03125" y="95.7475" transform="rotate(-0 386.03125 95.7475)">选择</text>
    </g>
    <g id="line2d_23">
     <path d="M 426.03125 80.7475
L 434.03125 80.7475
L 442.03125 80.7475
" style="fill: none; stroke: #788c5d; stroke-width: 1.8; stroke-linecap: square"/>
     <g>
      <use xlink:href="#mcc53ff5ffc" x="434.03125" y="80.7475" style="fill: #788c5d; stroke: #788c5d"/>
     </g>
    </g>
    <g id="text_13">
     <text style="font-size: 8px; font-family: 'Noto Sans CJK SC', 'Poppins', 'Arial', 'Hiragino Sans GB', 'Arial Unicode MS', 'DejaVu Sans', sans-serif; text-anchor: start; fill: #141413" x="448.43125" y="83.5475" transform="rotate(-0 448.43125 83.5475)">排序</text>
    </g>
    <g id="line2d_24">
     <path d="M 426.03125 92.9475
L 434.03125 92.9475
L 442.03125 92.9475
" style="fill: none; stroke-dasharray: 6.66,2.88; stroke-dashoffset: 0; stroke: #b0aea5; stroke-width: 1.8"/>
    </g>
    <g id="text_14">
     <text style="font-size: 8px; font-family: 'Noto Sans CJK SC', 'Poppins', 'Arial', 'Hiragino Sans GB', 'Arial Unicode MS', 'DejaVu Sans', sans-serif; text-anchor: start; fill: #141413" x="448.43125" y="95.7475" transform="rotate(-0 448.43125 95.7475)">选择恒 A 基线</text>
    </g>
   </g>
  </g>
 </g>
 <defs>
  <clipPath id="pa45fcaae2a">
   <rect x="38.44" y="7.2" width="465.64" height="160.36"/>
  </clipPath>
 </defs>
</svg>
