<svg xmlns="http://www.w3.org/2000/svg" viewBox="0 0 880 400" font-family="Inter,system-ui,sans-serif">
<rect width="880" height="400" fill="#fffdf8"/>
<text x="70" y="25" font-size="13" font-weight="600" fill="#232426">Final-Step Gap Contribution by Bucket (val@960 - train@1000)</text>
<text x="70" y="42" font-size="10" fill="#686d73">Novel bucket shown as frac × val_loss (no train counterpart)</text>
<line x1="70" y1="50.0" x2="850" y2="50.0" stroke="#e8e5df" stroke-width="0.6"/>
<text x="62" y="54.0" text-anchor="end" font-size="10" fill="#686d73">1.737</text>
<line x1="70" y1="106.0" x2="850" y2="106.0" stroke="#e8e5df" stroke-width="0.6"/>
<text x="62" y="110.0" text-anchor="end" font-size="10" fill="#686d73">1.390</text>
<line x1="70" y1="162.0" x2="850" y2="162.0" stroke="#e8e5df" stroke-width="0.6"/>
<text x="62" y="166.0" text-anchor="end" font-size="10" fill="#686d73">1.042</text>
<line x1="70" y1="218.0" x2="850" y2="218.0" stroke="#e8e5df" stroke-width="0.6"/>
<text x="62" y="222.0" text-anchor="end" font-size="10" fill="#686d73">0.695</text>
<line x1="70" y1="274.0" x2="850" y2="274.0" stroke="#e8e5df" stroke-width="0.6"/>
<text x="62" y="278.0" text-anchor="end" font-size="10" fill="#686d73">0.347</text>
<line x1="70" y1="330.0" x2="850" y2="330.0" stroke="#e8e5df" stroke-width="0.6"/>
<text x="62" y="334.0" text-anchor="end" font-size="10" fill="#686d73">0.000</text>
<rect x="77.8" y="86.5" width="36.4" height="243.5" fill="#c4493d"/>
<text x="96.0" y="345" text-anchor="middle" font-size="10" fill="#232426">0 (novel)</text>
<text x="96.0" y="82.5" text-anchor="middle" font-size="9" fill="#232426">1.510</text>
<rect x="129.8" y="253.7" width="36.4" height="76.3" fill="#4878cf"/>
<text x="148.0" y="345" text-anchor="middle" font-size="10" fill="#232426">21-50</text>
<text x="148.0" y="249.7" text-anchor="middle" font-size="9" fill="#232426">0.473</text>
<rect x="181.8" y="278.2" width="36.4" height="51.8" fill="#8a8176"/>
<text x="200.0" y="345" text-anchor="middle" font-size="10" fill="#232426">6-10</text>
<text x="200.0" y="274.2" text-anchor="middle" font-size="9" fill="#232426">0.322</text>
<rect x="233.8" y="279.5" width="36.4" height="50.5" fill="#6c5b7b"/>
<text x="252.0" y="345" text-anchor="middle" font-size="10" fill="#232426">51-100</text>
<text x="252.0" y="275.5" text-anchor="middle" font-size="9" fill="#232426">0.313</text>
<rect x="285.8" y="280.4" width="36.4" height="49.6" fill="#b67524"/>
<text x="304.0" y="345" text-anchor="middle" font-size="10" fill="#232426">1</text>
<text x="304.0" y="276.4" text-anchor="middle" font-size="9" fill="#232426">0.308</text>
<rect x="337.8" y="281.8" width="36.4" height="48.2" fill="#e4b33c"/>
<text x="356.0" y="345" text-anchor="middle" font-size="10" fill="#232426">11-20</text>
<text x="356.0" y="277.8" text-anchor="middle" font-size="9" fill="#232426">0.299</text>
<rect x="389.8" y="288.7" width="36.4" height="41.3" fill="#d65f5f"/>
<text x="408.0" y="345" text-anchor="middle" font-size="10" fill="#232426">101-200</text>
<text x="408.0" y="284.7" text-anchor="middle" font-size="9" fill="#232426">0.256</text>
<rect x="441.8" y="296.5" width="36.4" height="33.5" fill="#2a9d8f"/>
<text x="460.0" y="345" text-anchor="middle" font-size="10" fill="#232426">201-500</text>
<text x="460.0" y="292.5" text-anchor="middle" font-size="9" fill="#232426">0.208</text>
<rect x="493.8" y="298.6" width="36.4" height="31.4" fill="#236b70"/>
<text x="512.0" y="345" text-anchor="middle" font-size="10" fill="#232426">2</text>
<text x="512.0" y="294.6" text-anchor="middle" font-size="9" fill="#232426">0.195</text>
<rect x="545.8" y="304.3" width="36.4" height="25.7" fill="#7a5195"/>
<text x="564.0" y="345" text-anchor="middle" font-size="10" fill="#232426">3</text>
<text x="564.0" y="300.3" text-anchor="middle" font-size="9" fill="#232426">0.159</text>
<rect x="597.8" y="312.6" width="36.4" height="17.4" fill="#ef5675"/>
<text x="616.0" y="345" text-anchor="middle" font-size="10" fill="#232426">4</text>
<text x="616.0" y="308.6" text-anchor="middle" font-size="9" fill="#232426">0.108</text>
<rect x="649.8" y="313.0" width="36.4" height="17.0" fill="#3a7d44"/>
<text x="668.0" y="345" text-anchor="middle" font-size="10" fill="#232426">5</text>
<text x="668.0" y="309.0" text-anchor="middle" font-size="9" fill="#232426">0.105</text>
<rect x="701.8" y="313.7" width="36.4" height="16.3" fill="#606c38"/>
<text x="720.0" y="345" text-anchor="middle" font-size="10" fill="#232426">1k-5k</text>
<text x="720.0" y="309.7" text-anchor="middle" font-size="9" fill="#232426">0.101</text>
<rect x="753.8" y="315.5" width="36.4" height="14.5" fill="#bc6c25"/>
<text x="772.0" y="345" text-anchor="middle" font-size="10" fill="#232426">501-1k</text>
<text x="772.0" y="311.5" text-anchor="middle" font-size="9" fill="#232426">0.090</text>
<rect x="805.8" y="327.7" width="36.4" height="2.3" fill="#c4493d"/>
<text x="824.0" y="345" text-anchor="middle" font-size="10" fill="#232426">5k+</text>
<text x="824.0" y="323.7" text-anchor="middle" font-size="9" fill="#232426">0.014</text>
<line x1="70" y1="50" x2="70" y2="330" stroke="#232426" stroke-width="1.2"/>
<line x1="70" y1="330" x2="850" y2="330" stroke="#232426" stroke-width="1.2"/>
<text x="460.0" y="392" text-anchor="middle" font-size="11" fill="#232426">bucket (sorted by contribution)</text>
</svg>