<svg xmlns="http://www.w3.org/2000/svg" viewBox="0 0 880 480" font-family="Inter,system-ui,sans-serif">
<rect width="880" height="480" fill="#fffdf8"/>
<line x1="327.6" y1="30" x2="327.6" y2="425" stroke="#8a8176" stroke-width="1.2" stroke-dasharray="4,3"/>
<line x1="602.6" y1="30" x2="602.6" y2="425" stroke="#8a8176" stroke-width="1.2" stroke-dasharray="4,3"/>
<line x1="70" y1="30.0" x2="850" y2="30.0" stroke="#e8e5df" stroke-width="0.6"/>
<text x="62" y="34.0" text-anchor="end" font-size="10" fill="#686d73">109664.0</text>
<line x1="70" y1="109.0" x2="850" y2="109.0" stroke="#e8e5df" stroke-width="0.6"/>
<text x="62" y="113.0" text-anchor="end" font-size="10" fill="#686d73">24391.2</text>
<line x1="70" y1="188.0" x2="850" y2="188.0" stroke="#e8e5df" stroke-width="0.6"/>
<text x="62" y="192.0" text-anchor="end" font-size="10" fill="#686d73">5425.0</text>
<line x1="70" y1="267.0" x2="850" y2="267.0" stroke="#e8e5df" stroke-width="0.6"/>
<text x="62" y="271.0" text-anchor="end" font-size="10" fill="#686d73">1206.6</text>
<line x1="70" y1="346.0" x2="850" y2="346.0" stroke="#e8e5df" stroke-width="0.6"/>
<text x="62" y="350.0" text-anchor="end" font-size="10" fill="#686d73">268.4</text>
<line x1="70" y1="425.0" x2="850" y2="425.0" stroke="#e8e5df" stroke-width="0.6"/>
<text x="62" y="429.0" text-anchor="end" font-size="10" fill="#686d73">59.7</text>
<line x1="70.0" y1="30" x2="70.0" y2="425" stroke="#e8e5df" stroke-width="0.6"/>
<text x="70.0" y="443" text-anchor="middle" font-size="10" fill="#686d73">10</text>
<line x1="226.0" y1="30" x2="226.0" y2="425" stroke="#e8e5df" stroke-width="0.6"/>
<text x="226.0" y="443" text-anchor="middle" font-size="10" fill="#686d73">208</text>
<line x1="382.0" y1="30" x2="382.0" y2="425" stroke="#e8e5df" stroke-width="0.6"/>
<text x="382.0" y="443" text-anchor="middle" font-size="10" fill="#686d73">406</text>
<line x1="538.0" y1="30" x2="538.0" y2="425" stroke="#e8e5df" stroke-width="0.6"/>
<text x="538.0" y="443" text-anchor="middle" font-size="10" fill="#686d73">604</text>
<line x1="694.0" y1="30" x2="694.0" y2="425" stroke="#e8e5df" stroke-width="0.6"/>
<text x="694.0" y="443" text-anchor="middle" font-size="10" fill="#686d73">802</text>
<line x1="850.0" y1="30" x2="850.0" y2="425" stroke="#e8e5df" stroke-width="0.6"/>
<text x="850.0" y="443" text-anchor="middle" font-size="10" fill="#686d73">1000</text>
<line x1="70" y1="30" x2="70" y2="425" stroke="#232426" stroke-width="1.2"/>
<line x1="70" y1="425" x2="850" y2="425" stroke="#232426" stroke-width="1.2"/>
<text x="460.0" y="466" text-anchor="middle" font-size="11" fill="#232426">step</text>
<text x="18" y="227.5" text-anchor="middle" font-size="11" fill="#232426" transform="rotate(-90,18,227.5)">hit count (log)</text>
<text x="70" y="20" font-size="13" font-weight="600" fill="#232426">Count-Weighted Hit Count Quantiles (Train)</text>
<polyline points="70.0,381.3 77.9,372.5 85.8,379.8 93.6,379.8 101.5,339.6 109.4,381.3 117.3,361.2 125.2,385.3 133.0,367.9 140.9,369.1 148.8,372.5 156.7,389.2 164.5,370.3 172.4,378.0 180.3,327.3 188.2,379.1 196.1,364.7 203.9,384.1 211.8,356.2 219.7,366.7 227.6,341.7 235.5,373.5 243.3,351.7 251.2,339.3 259.1,398.9 267.0,379.5 274.8,366.1 282.7,389.6 290.6,364.4 298.5,375.9 306.4,380.2 314.2,368.2 322.1,351.4 327.6,377.6 328.4,361.2 330.0,382.1 337.9,373.8 345.8,380.2 353.6,368.5 361.5,383.3 369.4,382.1 377.3,340.5 385.2,388.3 393.0,365.6 400.9,390.1 408.8,354.8 416.7,377.3 424.5,358.4 432.4,357.4 440.3,374.9 448.2,394.8 456.1,379.1 463.9,376.6 471.8,390.1 479.7,329.4 487.6,353.0 495.5,373.2 503.3,366.7 511.2,395.3 519.1,366.4 527.0,383.3 534.8,314.7 542.7,372.9 550.6,363.9 558.5,386.6 566.4,370.6 574.2,356.7 582.1,373.8 590.0,349.1 597.9,383.7 602.6,346.3 603.4,372.9 605.8,368.8 613.6,388.7 621.5,383.7 629.4,373.2 637.3,380.2 645.2,371.2 653.0,357.4 660.9,372.2 668.8,375.5 676.7,327.6 684.5,375.2 692.4,370.3 700.3,380.6 708.2,369.4 716.1,372.9 723.9,381.7 731.8,385.3 739.7,354.6 747.6,382.5 755.5,376.2 763.3,407.0 771.2,375.2 779.1,383.3 787.0,336.8 794.8,360.2 802.7,362.5 810.6,376.6 818.5,355.0 826.4,367.0 834.2,376.6 842.1,377.3 850.0,389.6" fill="none" stroke="#c4493d" stroke-width="1.5" stroke-linejoin="round"/>
<rect x="700" y="33" width="10" height="3" fill="#c4493d"/>
<text x="714" y="39" font-size="10" fill="#232426">train q10</text>
<polyline points="70.0,309.8 77.9,309.4 85.8,309.9 93.6,313.0 101.5,263.5 109.4,309.4 117.3,289.3 125.2,321.5 133.0,295.2 140.9,295.0 148.8,310.3 156.7,317.1 164.5,301.2 172.4,312.9 180.3,242.0 188.2,309.4 196.1,299.2 203.9,310.9 211.8,289.5 219.7,300.2 227.6,260.4 235.5,310.6 243.3,293.7 251.2,258.3 259.1,329.8 267.0,315.3 274.8,297.6 282.7,319.1 290.6,295.6 298.5,319.0 306.4,318.8 314.2,299.1 322.1,279.8 327.6,304.8 328.4,286.7 330.0,310.3 337.9,305.0 345.8,304.7 353.6,302.2 361.5,311.3 369.4,317.0 377.3,271.1 385.2,317.1 393.0,296.5 400.9,321.5 408.8,287.3 416.7,309.0 424.5,296.7 432.4,281.0 440.3,307.5 448.2,325.7 456.1,315.6 463.9,304.2 471.8,313.7 479.7,249.7 487.6,276.7 495.5,295.6 503.3,303.5 511.2,327.3 519.1,291.2 527.0,312.6 534.8,217.0 542.7,304.2 550.6,283.2 558.5,315.6 566.4,300.4 574.2,284.8 582.1,301.1 590.0,280.1 597.9,318.4 602.6,263.5 603.4,287.8 605.8,290.7 613.6,328.1 621.5,319.5 629.4,306.2 637.3,307.2 645.2,294.0 653.0,286.0 660.9,301.2 668.8,315.3 676.7,248.0 684.5,311.0 692.4,302.2 700.3,306.1 708.2,296.0 716.1,308.2 723.9,309.5 731.8,316.8 739.7,283.4 747.6,309.3 755.5,306.4 763.3,333.0 771.2,314.8 779.1,311.3 787.0,251.0 794.8,281.9 802.7,290.5 810.6,310.1 818.5,278.7 826.4,293.2 834.2,307.6 842.1,304.2 850.0,324.8" fill="none" stroke="#353d79" stroke-width="1.5" stroke-linejoin="round"/>
<rect x="700" y="47" width="10" height="3" fill="#353d79"/>
<text x="714" y="53" font-size="10" fill="#232426">train q25</text>
<polyline points="70.0,225.6 77.9,223.4 85.8,238.9 93.6,245.2 101.5,175.6 109.4,220.7 117.3,220.7 125.2,250.6 133.0,213.3 140.9,226.2 148.8,238.7 156.7,253.6 164.5,230.6 172.4,235.7 180.3,143.5 188.2,230.6 196.1,214.6 203.9,233.5 211.8,213.1 219.7,222.9 227.6,146.2 235.5,233.3 243.3,213.3 251.2,167.7 259.1,246.7 267.0,228.6 274.8,217.1 282.7,250.9 290.6,221.6 298.5,247.6 306.4,253.1 314.2,212.2 322.1,187.4 327.6,227.4 328.4,198.1 330.0,224.6 337.9,215.5 345.8,221.0 353.6,213.3 361.5,230.4 369.4,250.2 377.3,177.8 385.2,247.6 393.0,190.0 400.9,231.2 408.8,196.6 416.7,243.5 424.5,226.0 432.4,211.3 440.3,243.4 448.2,253.4 456.1,233.3 463.9,227.1 471.8,234.5 479.7,146.8 487.6,201.5 495.5,208.9 503.3,223.0 511.2,266.2 519.1,188.9 527.0,224.8 534.8,131.8 542.7,243.5 550.6,203.2 558.5,246.0 566.4,230.6 574.2,184.9 582.1,226.7 590.0,196.6 597.9,238.0 602.6,185.1 603.4,208.7 605.8,184.9 613.6,258.7 621.5,240.4 629.4,214.6 637.3,244.7 645.2,219.5 653.0,203.2 660.9,226.0 668.8,245.3 676.7,162.1 684.5,232.2 692.4,222.0 700.3,242.8 708.2,224.8 716.1,239.4 723.9,233.6 731.8,250.5 739.7,180.0 747.6,225.3 755.5,239.2 763.3,260.8 771.2,235.9 779.1,209.3 787.0,144.6 794.8,217.0 802.7,219.1 810.6,229.7 818.5,174.6 826.4,221.2 834.2,228.0 842.1,222.6 850.0,245.3" fill="none" stroke="#b67524" stroke-width="1.5" stroke-linejoin="round"/>
<rect x="700" y="61" width="10" height="3" fill="#b67524"/>
<text x="714" y="67" font-size="10" fill="#232426">train q50</text>
<polyline points="70.0,146.2 77.9,136.2 85.8,146.8 93.6,183.9 101.5,75.7 109.4,136.2 117.3,146.0 125.2,167.7 133.0,143.1 140.9,170.9 148.8,174.6 156.7,167.7 164.5,162.1 172.4,182.3 180.3,73.2 188.2,162.1 196.1,144.6 203.9,177.8 211.8,146.2 219.7,146.8 227.6,75.7 235.5,162.1 243.3,143.1 251.2,75.7 259.1,176.9 267.0,169.8 274.8,147.8 282.7,187.4 290.6,152.7 298.5,198.1 306.4,183.9 314.2,146.8 322.1,135.8 327.6,146.0 328.4,113.5 330.0,183.9 337.9,146.0 345.8,146.8 353.6,143.5 361.5,147.8 369.4,188.9 377.3,75.7 385.2,167.7 393.0,75.7 400.9,172.9 408.8,136.2 416.7,167.7 424.5,146.0 432.4,143.5 440.3,183.9 448.2,203.1 456.1,162.3 463.9,147.8 471.8,170.9 479.7,75.7 487.6,143.1 495.5,162.1 503.3,170.9 511.2,190.0 519.1,143.1 527.0,147.8 534.8,73.2 542.7,146.8 550.6,135.8 558.5,144.6 566.4,175.6 574.2,134.8 582.1,167.7 590.0,146.8 597.9,183.9 602.6,131.8 603.4,146.2 605.8,102.8 613.6,188.3 621.5,174.6 629.4,147.8 637.3,162.3 645.2,146.2 653.0,146.8 660.9,162.1 668.8,186.2 676.7,75.7 684.5,169.8 692.4,175.6 700.3,147.8 708.2,146.8 716.1,174.6 723.9,197.9 731.8,152.7 739.7,75.7 747.6,147.8 755.5,162.1 763.3,182.3 771.2,185.2 779.1,144.6 787.0,75.7 794.8,147.8 802.7,174.6 810.6,152.7 818.5,75.7 826.4,180.0 834.2,143.5 842.1,196.5 850.0,169.8" fill="none" stroke="#236b70" stroke-width="1.5" stroke-linejoin="round"/>
<rect x="700" y="75" width="10" height="3" fill="#236b70"/>
<text x="714" y="81" font-size="10" fill="#232426">train q75</text>
<polyline points="70.0,143.5 77.9,48.0 85.8,143.1 93.6,143.5 101.5,48.0 109.4,135.6 117.3,134.8 125.2,136.2 133.0,135.8 140.9,143.1 148.8,144.6 156.7,135.8 164.5,135.6 172.4,135.6 180.3,48.0 188.2,135.6 196.1,133.9 203.9,134.8 211.8,73.2 219.7,135.6 227.6,48.0 235.5,143.5 243.3,73.2 251.2,48.0 259.1,146.2 267.0,135.8 274.8,135.6 282.7,135.6 290.6,136.2 298.5,146.0 306.4,146.2 314.2,134.8 322.1,48.0 327.6,134.8 328.4,73.2 330.0,143.5 337.9,135.6 345.8,134.8 353.6,48.0 361.5,143.5 369.4,146.8 377.3,48.0 385.2,135.8 393.0,48.0 400.9,143.1 408.8,134.8 416.7,134.8 424.5,143.1 432.4,135.8 440.3,146.0 448.2,135.6 456.1,133.9 463.9,144.6 471.8,133.9 479.7,48.0 487.6,133.9 495.5,135.6 503.3,136.2 511.2,135.8 519.1,134.8 527.0,135.6 534.8,48.0 542.7,135.6 550.6,102.8 558.5,134.8 566.4,143.1 574.2,73.2 582.1,143.1 590.0,135.6 597.9,144.6 602.6,48.0 603.4,134.8 605.8,48.0 613.6,143.5 621.5,143.1 629.4,135.6 637.3,135.8 645.2,134.8 653.0,135.6 660.9,136.2 668.8,146.2 676.7,48.0 684.5,135.8 692.4,146.0 700.3,136.2 708.2,135.8 716.1,143.5 723.9,146.0 731.8,133.9 739.7,73.2 747.6,135.6 755.5,135.8 763.3,143.5 771.2,135.6 779.1,136.2 787.0,48.0 794.8,143.1 802.7,143.5 810.6,144.6 818.5,48.0 826.4,136.2 834.2,131.8 842.1,146.2 850.0,143.1" fill="none" stroke="#7a5195" stroke-width="1.5" stroke-linejoin="round"/>
<rect x="700" y="89" width="10" height="3" fill="#7a5195"/>
<text x="714" y="95" font-size="10" fill="#232426">train q90</text>
<polyline points="70.0,133.9 77.9,48.0 85.8,135.6 93.6,134.8 101.5,48.0 109.4,134.8 117.3,133.9 125.2,133.9 133.0,134.8 140.9,135.6 148.8,133.9 156.7,133.9 164.5,131.8 172.4,131.8 180.3,48.0 188.2,133.9 196.1,131.8 203.9,134.8 211.8,48.0 219.7,135.6 227.6,48.0 235.5,133.9 243.3,48.0 251.2,48.0 259.1,143.1 267.0,134.8 274.8,135.6 282.7,133.9 290.6,134.8 298.5,143.1 306.4,143.1 314.2,133.9 322.1,48.0 327.6,133.9 328.4,48.0 330.0,134.8 337.9,133.9 345.8,131.8 353.6,48.0 361.5,135.8 369.4,133.9 377.3,48.0 385.2,133.9 393.0,48.0 400.9,135.6 408.8,133.9 416.7,133.9 424.5,133.9 432.4,134.8 440.3,133.9 448.2,133.9 456.1,133.9 463.9,135.8 471.8,131.8 479.7,48.0 487.6,131.8 495.5,134.8 503.3,136.2 511.2,134.8 519.1,131.8 527.0,131.8 534.8,48.0 542.7,133.9 550.6,73.2 558.5,131.8 566.4,136.2 574.2,48.0 582.1,134.8 590.0,134.8 597.9,135.8 602.6,48.0 603.4,133.9 605.8,48.0 613.6,131.8 621.5,135.8 629.4,135.6 637.3,133.9 645.2,133.9 653.0,131.8 660.9,75.7 668.8,133.9 676.7,48.0 684.5,133.9 692.4,144.6 700.3,135.6 708.2,134.8 716.1,113.5 723.9,135.8 731.8,131.8 739.7,48.0 747.6,133.9 755.5,135.6 763.3,135.8 771.2,134.8 779.1,131.8 787.0,48.0 794.8,133.9 802.7,135.6 810.6,143.5 818.5,48.0 826.4,133.9 834.2,131.8 842.1,133.9 850.0,135.6" fill="none" stroke="#ef5675" stroke-width="1.5" stroke-linejoin="round"/>
<rect x="700" y="103" width="10" height="3" fill="#ef5675"/>
<text x="714" y="109" font-size="10" fill="#232426">train q95</text>
<polyline points="70.0,131.8 77.9,48.0 85.8,133.9 93.6,133.9 101.5,48.0 109.4,131.8 117.3,131.8 125.2,131.8 133.0,131.8 140.9,134.8 148.8,131.8 156.7,133.9 164.5,131.8 172.4,113.5 180.3,48.0 188.2,131.8 196.1,131.8 203.9,133.9 211.8,48.0 219.7,131.8 227.6,48.0 235.5,131.8 243.3,48.0 251.2,48.0 259.1,135.6 267.0,133.9 274.8,131.8 282.7,133.9 290.6,131.8 298.5,134.8 306.4,131.8 314.2,131.8 322.1,48.0 327.6,133.9 328.4,48.0 330.0,131.8 337.9,131.8 345.8,113.5 353.6,48.0 361.5,135.6 369.4,131.8 377.3,48.0 385.2,131.8 393.0,48.0 400.9,131.8 408.8,131.8 416.7,131.8 424.5,133.9 432.4,131.8 440.3,113.5 448.2,133.9 456.1,131.8 463.9,131.8 471.8,131.8 479.7,48.0 487.6,131.8 495.5,133.9 503.3,135.8 511.2,131.8 519.1,131.8 527.0,131.8 534.8,48.0 542.7,131.8 550.6,73.2 558.5,131.8 566.4,134.8 574.2,48.0 582.1,131.8 590.0,131.8 597.9,135.6 602.6,48.0 603.4,131.8 605.8,48.0 613.6,131.8 621.5,134.8 629.4,131.8 637.3,131.8 645.2,131.8 653.0,131.8 660.9,75.7 668.8,131.8 676.7,48.0 684.5,131.8 692.4,135.8 700.3,131.8 708.2,133.9 716.1,113.5 723.9,131.8 731.8,113.5 739.7,48.0 747.6,131.8 755.5,133.9 763.3,134.8 771.2,133.9 779.1,131.8 787.0,48.0 794.8,131.8 802.7,134.8 810.6,133.9 818.5,48.0 826.4,131.8 834.2,131.8 842.1,131.8 850.0,134.8" fill="none" stroke="#3a7d44" stroke-width="1.5" stroke-linejoin="round"/>
<rect x="700" y="117" width="10" height="3" fill="#3a7d44"/>
<text x="714" y="123" font-size="10" fill="#232426">train q99</text>
<polyline points="70.0,131.8 77.9,48.0 85.8,133.9 93.6,133.9 101.5,48.0 109.4,131.8 117.3,131.8 125.2,131.8 133.0,131.8 140.9,134.8 148.8,131.8 156.7,133.9 164.5,131.8 172.4,113.5 180.3,48.0 188.2,131.8 196.1,131.8 203.9,133.9 211.8,48.0 219.7,131.8 227.6,48.0 235.5,131.8 243.3,48.0 251.2,48.0 259.1,135.6 267.0,133.9 274.8,131.8 282.7,133.9 290.6,131.8 298.5,134.8 306.4,131.8 314.2,131.8 322.1,48.0 327.6,133.9 328.4,48.0 330.0,131.8 337.9,131.8 345.8,113.5 353.6,48.0 361.5,135.6 369.4,131.8 377.3,48.0 385.2,131.8 393.0,48.0 400.9,131.8 408.8,131.8 416.7,131.8 424.5,133.9 432.4,131.8 440.3,113.5 448.2,133.9 456.1,131.8 463.9,131.8 471.8,131.8 479.7,48.0 487.6,131.8 495.5,133.9 503.3,135.8 511.2,131.8 519.1,131.8 527.0,131.8 534.8,48.0 542.7,131.8 550.6,73.2 558.5,131.8 566.4,134.8 574.2,48.0 582.1,131.8 590.0,131.8 597.9,135.6 602.6,48.0 603.4,131.8 605.8,48.0 613.6,131.8 621.5,134.8 629.4,131.8 637.3,131.8 645.2,131.8 653.0,131.8 660.9,75.7 668.8,131.8 676.7,48.0 684.5,131.8 692.4,135.8 700.3,131.8 708.2,133.9 716.1,113.5 723.9,131.8 731.8,113.5 739.7,48.0 747.6,131.8 755.5,133.9 763.3,134.8 771.2,133.9 779.1,131.8 787.0,48.0 794.8,131.8 802.7,134.8 810.6,133.9 818.5,48.0 826.4,131.8 834.2,131.8 842.1,131.8 850.0,134.8" fill="none" stroke="#8a8176" stroke-width="1.5" stroke-linejoin="round"/>
<rect x="700" y="131" width="10" height="3" fill="#8a8176"/>
<text x="714" y="137" font-size="10" fill="#232426">train q999</text>
<polyline points="70.0,131.8 77.9,48.0 85.8,133.9 93.6,133.9 101.5,48.0 109.4,131.8 117.3,131.8 125.2,131.8 133.0,131.8 140.9,134.8 148.8,131.8 156.7,133.9 164.5,131.8 172.4,113.5 180.3,48.0 188.2,131.8 196.1,131.8 203.9,133.9 211.8,48.0 219.7,131.8 227.6,48.0 235.5,131.8 243.3,48.0 251.2,48.0 259.1,135.6 267.0,133.9 274.8,131.8 282.7,133.9 290.6,131.8 298.5,134.8 306.4,131.8 314.2,131.8 322.1,48.0 327.6,133.9 328.4,48.0 330.0,131.8 337.9,131.8 345.8,113.5 353.6,48.0 361.5,135.6 369.4,131.8 377.3,48.0 385.2,131.8 393.0,48.0 400.9,131.8 408.8,131.8 416.7,131.8 424.5,133.9 432.4,131.8 440.3,113.5 448.2,133.9 456.1,131.8 463.9,131.8 471.8,131.8 479.7,48.0 487.6,131.8 495.5,133.9 503.3,135.8 511.2,131.8 519.1,131.8 527.0,131.8 534.8,48.0 542.7,131.8 550.6,73.2 558.5,131.8 566.4,134.8 574.2,48.0 582.1,131.8 590.0,131.8 597.9,135.6 602.6,48.0 603.4,131.8 605.8,48.0 613.6,131.8 621.5,134.8 629.4,131.8 637.3,131.8 645.2,131.8 653.0,131.8 660.9,75.7 668.8,131.8 676.7,48.0 684.5,131.8 692.4,135.8 700.3,131.8 708.2,133.9 716.1,113.5 723.9,131.8 731.8,113.5 739.7,48.0 747.6,131.8 755.5,133.9 763.3,134.8 771.2,133.9 779.1,131.8 787.0,48.0 794.8,131.8 802.7,134.8 810.6,133.9 818.5,48.0 826.4,131.8 834.2,131.8 842.1,131.8 850.0,134.8" fill="none" stroke="#e4b33c" stroke-width="1.5" stroke-linejoin="round"/>
<rect x="700" y="145" width="10" height="3" fill="#e4b33c"/>
<text x="714" y="151" font-size="10" fill="#232426">train max</text>
</svg>